<?xml version="1.0" standalone="no"?>
<!DOCTYPE svg PUBLIC "-//W3C//DTD SVG 20010904//EN"
 "http://www.w3.org/TR/2001/REC-SVG-20010904/DTD/svg10.dtd">
<svg version="1.0" xmlns="http://www.w3.org/2000/svg"
 width="600.000000pt" height="600.000000pt" viewBox="0 0 600.000000 600.000000"
 preserveAspectRatio="xMidYMid meet">
<metadata>
Created by potrace 1.14, written by Peter Selinger 2001-2017
</metadata>
<g transform="translate(0.000000,600.000000) scale(0.100000,-0.100000)"
fill="#000000" stroke="none">
<path d="M2127 4603 c-6 -9 -34 -175 -42 -248 -3 -27 -7 -63 -10 -80 -2 -16
-7 -57 -11 -90 -3 -33 -8 -69 -10 -80 -2 -11 -9 -47 -15 -80 -68 -385 -407
-808 -807 -1009 -73 -37 -220 -90 -277 -100 -126 -23 -144 -26 -275 -41 -72
-9 -139 -18 -225 -31 -124 -20 -245 -62 -350 -122 -71 -41 -105 -70 -105 -89
0 -31 74 -118 249 -292 217 -216 284 -252 466 -255 131 -1 183 5 300 39 116
34 237 84 362 151 l101 54 36 111 c134 415 427 747 819 929 137 63 343 120
495 137 403 44 847 -90 1154 -347 125 -104 269 -271 340 -395 49 -85 111 -222
143 -321 l36 -110 79 -51 c215 -141 390 -190 707 -198 169 -4 233 38 535 353
69 72 168 193 168 205 0 2 -30 25 -67 50 -155 103 -305 148 -618 182 -199 22
-314 44 -419 82 -389 140 -774 528 -902 910 -14 43 -28 89 -30 103 -3 14 -7
33 -10 42 -9 31 -18 89 -43 295 -21 164 -27 204 -40 263 -7 34 -9 35 -52 34
-24 0 -84 -4 -134 -9 -276 -24 -402 -29 -685 -30 -242 0 -456 8 -577 20 -21 2
-67 6 -103 10 -36 3 -90 8 -121 11 -31 3 -59 2 -62 -3z"/>
<path d="M2815 2813 c-372 -78 -647 -384 -693 -773 l-10 -75 72 -70 c170 -167
411 -342 612 -443 166 -84 211 -89 321 -31 103 54 486 318 555 382 8 6 47 41
88 76 106 91 103 85 96 167 -27 320 -258 616 -572 734 -128 48 -331 62 -469
33z"/>
</g>
</svg>
